<?xml version="1.0" encoding="utf-8"?>
<!-- Generator: Adobe Illustrator 18.1.1, SVG Export Plug-In . SVG Version: 6.00 Build 0)  -->
<svg version="1.1" id="Layer_1" xmlns="http://www.w3.org/2000/svg" xmlns:xlink="http://www.w3.org/1999/xlink" x="0px" y="0px"
	 viewBox="0 0 218 67.2" enable-background="new 0 0 218 67.2" xml:space="preserve">
<path fill="#004B8D" d="M18.1,60V40h3.1v21.4C20.2,61,19.1,60.6,18.1,60 M24.4,62.4V19.7h3.1v43.3C26.4,62.9,25.4,62.6,24.4,62.4z
	 M32.2,63.4c-0.5,0-1.1-0.1-1.6-0.1V19.7h3.1v43.6C33.2,63.3,32.7,63.4,32.2,63.4z M43.1,61.5V40h3.2v20
	C45.2,60.6,44.1,61,43.1,61.5z M36.9,63.1V19.7h3.1v42.7C39,62.6,37.9,62.9,36.9,63.1z M49.3,58.3V40h3.1v12.5
	c1.5-1.8,3.2-4.1,4.4-6.3c2.4-4.2,3.7-8.7,3.7-14c0-15.8-12.7-28.6-28.3-28.6C16.6,3.6,3.9,16.4,3.9,32.2c0,5.3,1.2,9.8,3.6,13.9
	c1.3,2.2,2.9,4.5,4.4,6.4V40h3.2v18.3C6.6,52.7,1,43.1,1,32.2C1,15,15,1,32.2,1c17.2,0,31.2,14,31.2,31.2
	C63.4,43.1,57.8,52.7,49.3,58.3z M40,17.4l-7.8-6l-7.8,6l-1.7-2.2l9.5-7.4l9.5,7.4L40,17.4z"/>
<path fill="#004B8D" d="M112.7,61.9c0,1.4-2.1,2.6-4.8,2.6c-2,0-3.4-0.9-3.4-2.2c0-1.2,0.6-2,1.2-2.5c3.3,0.2,4.7,0.3,5.8,0.6
	C112.2,60.4,112.7,60.8,112.7,61.9 M110.3,49.5c0,1.6-0.3,3.7-2.2,3.7c-2,0-2.2-2.2-2.2-3.9c0-1.6,0.1-3.9,2.1-3.9
	C110,45.3,110.3,47.8,110.3,49.5z M87.7,20.5c0,1.7-0.6,3.3-2,4.1c-0.9,0.5-2,0.8-2.9,0.8c-0.9,0-1.5-0.1-2.1-0.5v-9.2h1.4
	C84.3,15.7,87.7,16,87.7,20.5z M86.4,9.7c0,4.3-2.6,4.4-4.1,4.4h-1.6V5.8c0.8-0.3,1.2-0.4,2.2-0.4C84,5.4,86.4,5.9,86.4,9.7z
	 M103.4,18.5c0,2.1-0.3,7-3.1,7c-1.8,0-2.8-2.6-2.8-6.4c0-1.8,0.1-7.1,3.1-7.1C102.9,11.9,103.4,15.8,103.4,18.5z M82.8,60.3v-1.4
	l-1.9-0.4V39.4l2-0.4v-1.4h-7.6v1.4l2.1,0.3v19.2L75.3,59v1.3H82.8z M99.8,60.3v-1.4l-1.7-0.4V48.2c0-2.5-1.3-4.1-4-4.1
	c-1.7,0-3,1-4.2,1.9v-2H89l-4.1,1.1v1.3l1.9,0.3v12L84.9,59v1.3h6.8v-1.4L90,58.5V47.8c0.9-0.8,1.9-1.4,3.1-1.4
	c1.8,0,1.8,1.8,1.8,2.7v9.6L93.2,59v1.3H99.8z M115.2,46.3v-2l-3.8,0.1c-1.1,0-2.2-0.5-3.4-0.5c-3.2,0-5.6,2.2-5.6,5.5
	c0,2.8,1.6,3.8,2.7,4.5c-1.7,1-3,2.2-3,3.5c0,1,0.7,1.7,1.8,2.1c-1.2,0.7-2.6,1.8-2.6,3.4c0,2.4,3,3.3,5.8,3.3
	c5.1,0,7.9-2.5,7.9-5.6c0-2.8-1.7-3.7-4.5-3.9l-4.2-0.2c-0.3,0-1.1-0.1-1.1-0.6c0-0.5,0.6-1.1,1.2-1.5c0.6,0.2,1.2,0.3,1.8,0.3
	c2.3,0,5.5-1.6,5.5-5.3c0-1.2-0.5-2.1-1.2-3.2L115.2,46.3z M91.4,20.7c0-1.6-0.5-3-1.6-4.2c-1.1-1.1-2.2-1.5-3.5-1.8
	c1.6-0.7,3.9-2.2,3.9-5.4c0-1.2-0.5-2.6-1.4-3.6C87.2,4,84.7,4,83.4,4c-1.4,0-2.8,0.2-4.3,0.2h-4v1.4l2.2,0.4V25l-2.2,0.4v1.3H79
	c0.8,0,4.3,0.1,5.1,0.1c1.8,0,4.9,0.1,6.7-3C91.2,23,91.5,21.9,91.4,20.7z M106.9,18.5c0-7.2-4.5-8.2-6.4-8.2
	c-4.6,0-6.5,4.7-6.5,8.6c0,5.1,2.8,8.1,6.3,8.1C103.8,27.1,106.9,24.1,106.9,18.5z M121,18.5c-0.1-3.9-0.8-8.1-5.6-8.1
	c-4.7,0-6,5.1-6,8.7c0,4.7,2,7.9,5.9,7.9c3,0,4.3-1.2,5.6-3.8l-1.4-0.6c-0.7,1.1-1.6,2.1-3,2.1c-3.2,0-3.7-3.7-3.9-6.3H121z
	 M117.6,16.9h-5c0.2-2,0.7-4.9,2.8-4.9C117.4,12,117.6,14.9,117.6,16.9z"/>
<path fill="#004B8D" d="M125.3,50.5h-5c0.2-2,0.7-4.9,2.8-4.9C125.1,45.5,125.3,48.5,125.3,50.5 M128.7,52c-0.1-3.9-0.8-8.1-5.6-8.1
	c-4.7,0-6,5.1-6,8.7c0,4.7,2,7.9,5.9,7.9c3,0,4.3-1.2,5.6-3.8l-1.4-0.6c-0.7,1.1-1.6,2.1-3,2.1c-3.2,0-3.7-3.7-3.9-6.3H128.7z
	 M168.3,52c-0.1-3.9-0.8-8.1-5.6-8.1c-4.7,0-6,5.1-6,8.7c0,4.7,2,7.9,5.9,7.9c3,0,4.3-1.2,5.6-3.8l-1.4-0.6c-0.7,1.1-1.6,2.1-3,2.1
	c-3.2,0-3.7-3.7-3.9-6.3H168.3z M137.4,60.3v-1.4l-1.8-0.4V36.1h-0.9l-4.1,0.9v1.1l1.8,0.2v20.2l-1.9,0.4v1.3H137.4z M154.5,60.3
	v-1.4l-1.8-0.4V48.2c0-2.4-1.2-4-3.9-4c-1.8,0-3.1,0.9-4.3,1.9v-10h-0.9l-4.1,0.9v1.1l1.8,0.3v20.1l-1.9,0.4v1.3h6.6v-1.4l-1.6-0.4
	V48c0.9-0.8,1.8-1.5,3.1-1.5c1.8,0,1.8,1.9,1.8,3.2v8.9L148,59v1.3H154.5z M137.7,26.7v-1.4L136,25V14.7c0-2.4-1.3-4.1-3.9-4.1
	c-1.8,0-3.1,1-4.3,1.9V2.6h-0.9l-4.1,0.9v1.1l1.8,0.4v20l-2,0.4v1.3h6.7v-1.4l-1.6-0.3V14.5c0.9-0.8,1.8-1.4,3-1.4
	c1.9,0,1.9,1.9,1.9,3.2v8.9l-1.6,0.3v1.3H137.7z M149.9,12.6c0-1.3-0.9-1.9-1.9-1.9c-1.4,0-2.1,1.1-3.2,2.8v-3h-1l-3.9,1.1v1
	l1.9,0.3V25l-1.9,0.4v1.3h7.3v-1.4l-2.3-0.3v-8.6c0-0.5,0.7-2.2,2-2.8l1.7,0.9C149.2,14.1,149.9,13.6,149.9,12.6z M158.3,26.7v-1.4
	l-1.8-0.3V10.7h-0.8l-4.1,1v1.1l1.8,0.4V25l-1.8,0.4v1.3H158.3z M156.7,4.7c0-1.2-0.9-2.1-2.1-2.1c-1.2,0-2.1,0.9-2.1,2.1
	c0,1.2,0.9,2.1,2.1,2.1C155.8,6.8,156.7,5.9,156.7,4.7z M164.9,50.5h-5c0.2-2,0.7-4.9,2.8-4.9C164.7,45.5,164.9,48.5,164.9,50.5z"/>
<path fill="#004B8D" d="M200.9,16.9h-5c0.2-2,0.7-4.9,2.8-4.9C200.6,12,200.8,14.9,200.9,16.9 M204.3,18.5c-0.1-3.9-0.8-8.1-5.6-8.1
	c-4.7,0-6,5.1-6,8.7c0,4.7,2,7.9,5.9,7.9c3,0,4.3-1.2,5.6-3.8l-1.4-0.6c-0.7,1.1-1.6,2.1-3,2.1c-3.2,0-3.7-3.7-3.9-6.3H204.3z
	 M188.4,28.3c0,1.4-2.1,2.6-4.8,2.6c-2,0-3.4-0.8-3.4-2.2c0-1.2,0.7-1.9,1.2-2.5c3.4,0.2,4.8,0.4,5.8,0.6
	C187.8,26.9,188.4,27.2,188.4,28.3z M177.7,60.3v-1.4l-1.8-0.4V44.2H175l-4.1,1v1.1l1.8,0.4v11.9l-1.8,0.4v1.3H177.7z M176.1,38.2
	c0-1.1-0.9-2.1-2-2.1c-1.2,0-2.2,1-2.2,2.2c0,1.1,0.9,2.1,2.1,2.1C175.2,40.4,176.1,39.4,176.1,38.2z M203.4,60.3v-1.4l-1.8-0.4
	V48.2c0-2.6-1.6-3.9-4.1-3.9c-1.8,0-3.2,0.9-4.4,2.2c-0.7-1.4-2.1-2.1-3.7-2.1c-1.6,0-3.2,0.7-4.5,1.9V44H184l-4.1,1.1v1.1l1.9,0.3
	v12.1l-1.9,0.4v1.3h6.7v-1.4l-1.5-0.4V48c0.7-0.7,1.6-1.5,3-1.5c1.7,0,2,1.5,2,2.8v9.4l-1.8,0.4v1.3h6.6v-1.4l-1.6-0.4V48
	c0.9-0.9,1.8-1.6,3.1-1.6c1.8,0,2,1.8,2,2.7v9.5l-1.8,0.4v1.3H203.4z M175.5,26.7v-1.4l-1.7-0.3V14.7c0-2.6-1.3-4.1-4-4.1
	c-1.7,0-3,0.9-4.2,1.9v-2h-0.9l-4.1,1.1v1.3l1.9,0.2v12l-1.9,0.4v1.3h6.7v-1.4l-1.6-0.3V14.3c0.9-0.8,1.8-1.5,3.1-1.5
	c1.8,0,1.8,1.9,1.8,2.7v9.6l-1.7,0.3v1.3H175.5z M190.8,12.8v-2l-3.7,0.1c-1.1,0-2.2-0.5-3.4-0.5c-3.1,0-5.6,2.2-5.6,5.5
	c0,2.8,1.6,3.9,2.7,4.5c-1.7,1.1-3,2.2-3,3.4c0,1.1,0.7,1.8,1.8,2.1c-1.2,0.8-2.6,1.8-2.6,3.4c0,2.4,3,3.3,5.8,3.3
	c5,0,7.9-2.5,7.9-5.5c0-2.9-1.8-3.9-4.6-3.9l-4.2-0.1c-0.3,0-1.1-0.2-1.1-0.7c0-0.4,0.6-0.9,1.2-1.4c0.6,0.1,1.2,0.3,1.8,0.3
	c2.3,0,5.5-1.6,5.5-5.3c0-1.3-0.5-2.2-1.2-3.2L190.8,12.8z M217,12.6c0-1.3-0.9-1.9-1.9-1.9c-1.4,0-2.2,1.1-3.2,2.8v-3H211l-4,1.1v1
	l1.9,0.3V25l-1.9,0.4v1.3h7.3v-1.4l-2.3-0.3v-8.6c0-0.5,0.8-2.2,2.1-2.8l1.7,0.9C216.2,14.1,217,13.6,217,12.6z M185.9,16
	c0,1.6-0.3,3.7-2.2,3.7c-2,0-2.2-2.2-2.2-3.9c0-1.6,0.1-3.9,2.1-3.9C185.7,11.8,185.9,14.2,185.9,16z"/>
</svg>
