<?xml version="1.0" encoding="utf-8"?>
<!-- Generator: Adobe Illustrator 18.1.1, SVG Export Plug-In . SVG Version: 6.00 Build 0)  -->
<svg version="1.1" id="Layer_1" xmlns="http://www.w3.org/2000/svg" xmlns:xlink="http://www.w3.org/1999/xlink" x="0px" y="0px"
	 viewBox="0 0 259 169.8" enable-background="new 0 0 259 169.8" xml:space="preserve" preserveAspectRatio="xMidYMid meet">
<path fill="#0076BE" d="M51.7,74.9c0,6.7-6.3,10.9-12.8,10.9c-1.5,0-2.9-0.2-4.2-0.8c5-0.3,10.4-3.4,10.4-8.9c0-5.2-3.6-7.2-8.2-7.2
	c-1.4,0-2.7,0.1-4.1,0.3v26.2c0,3.2-0.1,5.6,3,7.3v0.2H24.2v-0.2c3-1,2.6-5.3,2.6-7.9V72.8c0-2.6,0.3-6.8-2.5-8v-0.2h14.1
	C45.9,64.7,51.7,68.3,51.7,74.9z"/>
<path fill="#0076BE" d="M70.4,81c-0.6-0.7-1.7-0.9-2.7-0.9c-4.4,0-6.3,2.3-6.3,8.3v8.1c0,2.7-0.3,4.8,2.2,6.3v0.2H54v-0.2
	c2.5-1.5,2.2-3.6,2.2-6.3V82.6c0-2.7,0.3-4.8-2.1-6.2v-0.2h3.7c1.3,0,2.7-0.1,3.5-0.8h0.2v4.4c1.3-2.6,3.9-4.4,6.8-4.4l2.1,0.2V81z"
	/>
<path fill="#0076BE" d="M98.8,99.8l-2.6,3.8c-3.8-0.2-7.7-1.4-7.7-6v-9.2c-1.7,0.9-3.7,1.3-5.6,1.8c-2.8,0.6-5.9,1.3-5.9,4.8
	c0,3.6,3.2,4.8,6.3,4.8c1.4,0,2.8-0.4,4.2-0.8l-3.4,4.3c-1,0.2-2,0.3-3,0.3c-5.9,0-9.9-3.7-9.9-8.5c0-10.8,17.3-5.8,17.3-12.1
	c0-2.8-3.4-3.7-5.6-3.7c-3,0-5.3,1.1-7.9,2.3l3.9-5.8l3.8-0.3c6.3,0,11,1.8,11.1,8.8V93C93.9,97.5,94,99.3,98.8,99.8z"/>
<path fill="#0076BE" d="M121.4,94.6c0,5.4-5.5,9-13,9c-2.6,0-5.1-0.4-7.5-1.4l-2-5.7c3.4,2.1,6.9,3.2,10.9,3.2
	c2.4,0,6.4-0.8,6.4-3.8c0-5.9-15.7-4-15.7-12.8c0-6.1,6.4-7.8,11.4-7.8c2.1,0,4.4,0.2,6.4,0.8v4.9c-2.1-1.2-4.6-1.9-7.1-1.9
	c-1.9,0-5.4,0.5-5.4,2.8C105.7,87.2,121.4,85.4,121.4,94.6z"/>
<path fill="#0076BE" d="M150.4,97l-3,5.5c-2.4,0.9-5.1,1.2-7.7,1.2c-8.9,0-15.9-5.9-15.9-13.4c0-10,7.8-14.8,16.5-14.8
	c2.1,0,4.2,0.2,6.3,0.7v6h-0.2c-1.7-1.9-4.5-2.8-7.1-2.8c-5.6,0-9.7,3.9-9.7,9.5c0,6.7,5.6,11.1,12.1,11.1c3,0,6.2-1.2,8.5-2.8
	H150.4z"/>
<path fill="#0076BE" d="M178.3,96.7l-3,5.5c-2.5,1-5.3,1.5-8,1.5c-9.9,0-16.6-6.2-16.6-14.3s5.9-13.9,14.5-13.9
	c7.9,0,13.3,5.7,13.1,13.2h-21.3c0.1,7.1,5,11.2,11.6,11.2c3.5,0,6.8-1,9.5-3.1H178.3z M172.1,85.2c-0.6-4.1-3.3-6-7.5-6
	c-3.9,0-6.8,2.3-7.5,6H172.1z"/>
<path fill="#0076BE" d="M209.2,102.9h-9.7v-0.2c2.5-1.5,2.2-3.6,2.2-6.2v-7.8c0-6.2-1.7-9.4-7-9.4c-5.3,0-6.1,3.5-6.1,7v10.3
	c0,2.7-0.3,4.8,2.2,6.2v0.2H181v-0.2c2.5-1.5,2.2-3.6,2.2-6.3V82.6c0-2.7,0.3-4.8-2.2-6.3v-0.2h3.4c1.3,0,2.7-0.1,3.9-0.8h0.2v4.5
	c2-2.8,4.4-4.5,8.2-4.5c3.2,0,7,1.3,8.8,4c1.6,2.3,1.4,5.9,1.4,8.6v8.4c0,2.7-0.3,4.8,2.3,6.2V102.9z"/>
<path fill="#0076BE" d="M242.4,102.9h-7.5V90.5c0-2.3,0.2-4.9-0.9-7c-1.5-2.8-4.4-4.2-7.5-4.2c-4.6,0-8.4,4.2-8.4,9.5
	c0,5.9,4.2,11,10.3,11c1.9,0,3.4-0.7,5-1.7l-3.4,5.2c-1,0.3-2,0.3-3,0.3c-8.5,0-14.7-5.4-14.7-14c0-7.8,5.8-14.2,13.7-14.2
	c3.2,0,6.5,1.2,8.9,3.4v-7.7c0-2.7,0.3-4.8-2.2-6.3v-0.2h3.9c1.3,0,2.7,0,3.4-0.9h0.2v32.8c0,2.7-0.3,4.8,2.2,6.2V102.9z"/>
<linearGradient id="SVGID_1_" gradientUnits="userSpaceOnUse" x1="184.7991" y1="20.4303" x2="249.376" y2="20.4303">
	<stop  offset="0" style="stop-color:#0076BE"/>
	<stop  offset="5.800050e-02" style="stop-color:#2C80C3"/>
	<stop  offset="0.1625" style="stop-color:#5F92CD"/>
	<stop  offset="0.2731" style="stop-color:#80A4D6"/>
	<stop  offset="0.3888" style="stop-color:#9BB5DE"/>
	<stop  offset="0.5115" style="stop-color:#B0C3E5"/>
	<stop  offset="0.6443" style="stop-color:#C0CDE9"/>
	<stop  offset="0.7946" style="stop-color:#C9D4EC"/>
	<stop  offset="1" style="stop-color:#CCD6ED"/>
</linearGradient>
<path fill="url(#SVGID_1_)" d="M249.4,14.9c-25.5,25.9-84.4,28.6-52-12.4C158,41.6,220.9,53.1,249.4,14.9z"/>
<linearGradient id="SVGID_2_" gradientUnits="userSpaceOnUse" x1="115.8989" y1="44.3592" x2="249.376" y2="44.3592">
	<stop  offset="0" style="stop-color:#F388AF"/>
	<stop  offset="0.319" style="stop-color:#F388AF"/>
	<stop  offset="1" style="stop-color:#FACDDB"/>
</linearGradient>
<path fill="url(#SVGID_2_)" d="M249.4,14.9c-45.5,62.6-76.1-13.5-133.5,59C175.6,4.3,207.4,91.5,249.4,14.9z"/>
<linearGradient id="SVGID_3_" gradientUnits="userSpaceOnUse" x1="3.1221" y1="34.4391" x2="207.1791" y2="34.4391">
	<stop  offset="0.4417" style="stop-color:#0076BE"/>
	<stop  offset="0.4718" style="stop-color:#047BC0"/>
	<stop  offset="0.5552" style="stop-color:#4187C7"/>
	<stop  offset="0.6444" style="stop-color:#5A91CC"/>
	<stop  offset="0.7411" style="stop-color:#6A99D0"/>
	<stop  offset="0.8505" style="stop-color:#739DD3"/>
	<stop  offset="1" style="stop-color:#759FD4"/>
</linearGradient>
<path fill="url(#SVGID_3_)" d="M206.6,5.4c3.1,129.3-52.4-44-203.5,58.1C148.5-24.4,213.8,135.8,206.6,5.4z"/>
<path fill="#0076BE" d="M3.1,63.5c69.5-80,210.6,73.6,246.3-48.6C218.1,144.3,69.7-20.6,3.1,63.5z"/>
<path fill="#0076BE" d="M248.5,59.4c3.2,0,5.7,2.5,5.7,5.6c0,3.2-2.5,5.7-5.8,5.7c-3.2,0-5.8-2.5-5.8-5.7
	C242.7,62,245.2,59.4,248.5,59.4L248.5,59.4z M248.4,60.6c-2.5,0-4.3,2-4.3,4.5c0,2.5,1.9,4.5,4.4,4.5c2.5,0,4.3-2,4.3-4.5
	C252.8,62.6,251,60.6,248.4,60.6L248.4,60.6z M247.6,68h-1.3v-5.6c0.5-0.1,1.2-0.2,2.2-0.2c1.1,0,1.5,0.2,2,0.4
	c0.3,0.2,0.5,0.7,0.5,1.2c0,0.7-0.5,1.1-1.2,1.3v0.1c0.5,0.2,0.9,0.6,1,1.4c0.2,0.9,0.3,1.2,0.4,1.4h-1.4c-0.2-0.2-0.3-0.7-0.4-1.3
	c-0.1-0.6-0.4-0.9-1.2-0.9h-0.6V68z M247.6,64.8h0.6c0.7,0,1.3-0.2,1.3-0.8c0-0.5-0.4-0.9-1.2-0.9c-0.3,0-0.6,0-0.7,0.1V64.8z"/>
<path fill="#808285" d="M25.4,119h1.7v3.5h0c0.5-1.5,1.6-4,4.9-4c4.9,0,6.5,5,6.5,9.2c0,4.8-2,9.2-6.5,9.2c-2.3,0-4.1-1.8-4.9-4h0
	v10.2h-1.7V119z M32,134.8c2.7,0,4.8-2.7,4.8-7.1c0-3.5-1.3-7.1-4.8-7.1c-2.8,0-5,2.6-5,7.1C27,131.2,28.5,134.8,32,134.8z"/>
<path fill="#808285" d="M53.2,130.8c-0.7,3.1-2.5,6.1-6.4,6.1c-4.9,0-6.5-5-6.5-9.2c0-4.8,2-9.2,6.5-9.2c3.1,0,6.7,1.9,6.7,9.8H42
	c0,3.6,1.8,6.5,4.8,6.5c2.8,0,4.1-1.4,4.7-4H53.2z M51.8,126.4c-0.5-4.3-2.6-5.9-4.9-5.9c-2.2,0-4.5,1.6-4.9,5.9H51.8z"/>
<path fill="#808285" d="M55.6,119h1.7v4h0c0.6-2.1,1.7-4.5,4.6-4.5c0.5,0,0.8,0.1,1,0.1v2.5c-0.5-0.1-1-0.2-1.6-0.2
	c-1.8,0-4.1,1.6-4.1,6.6v8.8h-1.7V119z"/>
<path fill="#808285" d="M75.1,119h1.7v16.6c0,6.4-3.6,8-6.7,8c-5.4,0-6-3.8-6.1-5.6h1.6c0.3,1.9,0.6,3.8,4.6,3.8
	c3.1,0,4.9-2.1,4.9-6.3v-3.1h0c-0.6,1.8-2.2,3.9-5.3,3.9c-3,0-6.3-2.3-6.3-9c0-4.6,2-8.8,6.5-8.8c2.3,0,4.3,1.3,5.1,3.9h0V119z
	 M70.1,120.6c-3,0-4.9,2.5-4.9,6.8c0,5.1,2.2,7,5.1,7c2.8,0,5-2.6,5-7C75.2,123.7,73.4,120.6,70.1,120.6z"/>
<path fill="#808285" d="M85.7,118.5c4.6,0,6.8,4.4,6.8,9.2c0,4.8-2.2,9.2-6.8,9.2c-4.6,0-6.8-4.4-6.8-9.2
	C79,122.8,81.2,118.5,85.7,118.5z M85.7,134.8c3.2,0,5.1-3,5.1-7.1c0-4.2-1.9-7.1-5.1-7.1c-3.2,0-5.1,3-5.1,7.1
	C80.7,131.8,82.5,134.8,85.7,134.8z"/>
<path fill="#808285" d="M94.7,112.4h1.7v24h-1.7V112.4z"/>
<path fill="#808285" d="M98.9,112.4h1.7v3.7h-1.7V112.4z M98.9,119h1.7v17.3h-1.7V119z"/>
<path fill="#808285" d="M114.2,132.9L114.2,132.9c-0.5,1.5-2,4-4.9,4c-4.9,0-6.5-5-6.5-9.2c0-4.8,2-9.2,6.5-9.2c2.3,0,4.1,1.8,4.9,4
	h0v-10.1h1.7v24h-1.7V132.9z M109.3,120.6c-2.7,0-4.8,2.7-4.8,7.1c0,3.5,1.3,7.1,4.8,7.1c2.8,0,5-2.6,5-7.1
	C114.3,124.1,112.7,120.6,109.3,120.6z"/>
<path fill="#808285" d="M131,130.8c-0.7,3.1-2.5,6.1-6.4,6.1c-4.9,0-6.5-5-6.5-9.2c0-4.8,2-9.2,6.5-9.2c3.1,0,6.7,1.9,6.7,9.8h-11.5
	c0,3.6,1.8,6.5,4.8,6.5c2.8,0,4.1-1.4,4.7-4H131z M129.6,126.4c-0.5-4.3-2.6-5.9-4.9-5.9c-2.2,0-4.5,1.6-4.9,5.9H129.6z"/>
<path fill="#808285" d="M158.4,125.3c0-3.2-1.1-4.8-3.6-4.8c-2.6,0-4.1,2.2-4.1,5.6v10.2h-1.7v-11.7c0-2.2-1.1-4.1-3.4-4.1
	c-2.4,0-4.2,2-4.2,6v9.8h-1.7V119h1.7v3.2h0c0.7-1.8,2-3.7,4.7-3.7c2.7,0,3.9,2.1,4.3,3.8c0.6-1.7,2.3-3.8,4.7-3.8
	c3.4,0,4.9,2.5,4.9,6v11.8h-1.7V125.3z"/>
<path fill="#808285" d="M175.2,130.8c-0.7,3.1-2.5,6.1-6.4,6.1c-4.9,0-6.5-5-6.5-9.2c0-4.8,2-9.2,6.5-9.2c3.1,0,6.7,1.9,6.7,9.8H164
	c0,3.6,1.8,6.5,4.8,6.5c2.8,0,4.1-1.4,4.7-4H175.2z M173.8,126.4c-0.5-4.3-2.6-5.9-4.9-5.9c-2.2,0-4.5,1.6-4.9,5.9H173.8z"/>
<path fill="#808285" d="M186.5,124.1c-0.4-2.8-1.6-3.6-4.1-3.6c-1.8,0-3.4,0.6-3.4,3c0,1.8,0.8,2.2,4.4,2.9c3.7,0.7,5.2,1.6,5.2,5
	c0,3.4-1.9,5.5-5.7,5.5c-3.8,0-6-1.8-6-6h1.6c0.3,2.9,1.4,3.9,4.5,3.9c2.4,0,4-0.7,4-3.3c0-1.7-0.9-2.5-4.6-3c-3.7-0.5-5-1.8-5-4.9
	c0-3,1.7-5.1,5.1-5.1c3.9,0,5.5,2,5.7,5.7H186.5z"/>
<path fill="#808285" d="M200.1,119h1.8l-6.5,20.5c-0.9,2.7-1.6,3.5-3.5,3.5c-0.5,0-1.1,0-1.6-0.1v-2.1c0.4,0,0.8,0.1,1.2,0.1
	c1.2,0,1.8-0.4,2.4-2.1l0.8-2.4l-5.8-17.4h1.8l4.9,14.4L200.1,119z"/>
<path fill="#808285" d="M203.1,112.4h1.7v24h-1.7V112.4z"/>
<path fill="#808285" d="M207.3,124.3c0.3-3.6,1.6-5.9,5.7-5.9c4,0,5.5,1.8,5.5,5.1v9.1c0,1.4,0.3,1.9,0.9,1.9c0.3,0,0.6,0,0.9-0.1
	v1.7c-0.3,0.1-0.9,0.3-1.4,0.3c-1.7,0-1.8-1.7-1.8-3.1h0c-0.5,1.1-1.7,3.5-5.6,3.5c-2,0-4.6-1.3-4.6-5.2c0-4.7,3.3-5.2,5.9-5.4
	c3.7-0.3,4.2-0.6,4.2-2.3c0-2.5-1.1-3.4-4-3.4c-2.7,0-4,1-4.1,3.8H207.3z M216.9,127c-0.8,0.7-1.9,0.8-5.3,1.3
	c-2,0.3-3.1,1.1-3.1,3.2c0,2.7,1.6,3.5,3.4,3.5c2.3,0,5-1.8,5-5.4V127z"/>
<path fill="#808285" d="M222.5,113.6h1.7v5.5h3.4v1.9h-3.4v11.5c0,1.5,0.3,2.2,1.7,2.2c0.8,0,1.4-0.1,1.7-0.2v2.1
	c-0.6,0.1-1.3,0.2-1.9,0.2c-2.6,0-3.2-1.5-3.2-4.3v-11.4h-2.6V119h2.6V113.6z"/>
<path fill="#808285" d="M242,130.8c-0.7,3.1-2.5,6.1-6.4,6.1c-4.9,0-6.5-5-6.5-9.2c0-4.8,2-9.2,6.5-9.2c3.1,0,6.7,1.9,6.7,9.8h-11.5
	c0,3.6,1.8,6.5,4.8,6.5c2.8,0,4.1-1.4,4.7-4H242z M240.6,126.4c-0.5-4.3-2.6-5.9-4.9-5.9c-2.2,0-4.5,1.6-4.9,5.9H240.6z"/>
</svg>
